# xmcd CD database file
#
# Track frame offsets:
#	150
#	38280
#	112278
#	166233
#	255638
#	279389
#
# Disc length: 4369 seconds
#
# Revision: 0
# Processed by: cddbd v1.5.1PL2 Copyright (c) Steve Scherf et al.
# Submitted via: CDex 1.51
#
DISCID=48110f06
DTITLE=Randy Weston - The spirit of our ancestors
DYEAR=1991
DGENRE=Jazz
TTITLE0=01 African village bedford-stuyvesant 2
TTITLE1=02 The seven queen
TTITLE2=03 Blue moses
TTITLE3=04 African sunrise
TTITLE4=05 A prayer for us all
TTITLE5=06 The healers
EXTD=YEAR: 1991
EXTT0=
EXTT1=
EXTT2=
EXTT3=
EXTT4=
EXTT5=
PLAYORDER=
